# xmcd
#
# Track frame offsets:
#	150
#	21974
#	45785
#	70867
#	87411
#	103026
#	124283
#	146588
#	165522
#	179148
#	196146
#	211554
#	237975
#	263322
#	284214
#
# Disc length: 4046 seconds
#
# Revision: 1
# Processed by: cddbd v1.5.1PL0 Copyright (c) Steve Scherf et al.
# Submitted via: CDex 1.50Beta5
#
DISCID=d30fcc0f
DTITLE=きたがわてつ - 日本国憲法前文
DYEAR=1900
DGENRE=Folk
TTITLE0=夜明け前の歌
TTITLE1=子供たちよ
TTITLE2=Challenge
TTITLE3=そんな町を
TTITLE4=ケサラ
TTITLE5=ローズ
TTITLE6=ひまわり
TTITLE7=海のように 山のように
TTITLE8=ただひとつの願い
TTITLE9=まつり
TTITLE10=9条
TTITLE11=日本国憲法前文
TTITLE12=広島のある町で
TTITLE13=From A Distance
TTITLE14=ブラザーサン・シスタームーン
EXTD=
EXTT0=
EXTT1=
EXTT2=
EXTT3=
EXTT4=
EXTT5=
EXTT6=
EXTT7=
EXTT8=
EXTT9=
EXTT10=
EXTT11=
EXTT12=
EXTT13=
EXTT14=
PLAYORDER=
